<?xml version="1.0" encoding="UTF-8" ?>
<!DOCTYPE svg PUBLIC "-//W3C//DTD SVG 1.1//EN" "http://www.w3.org/Graphics/SVG/1.1/DTD/svg11.dtd">
<svg width="836pt" height="856pt" viewBox="0 0 836 856" version="1.1" xmlns="http://www.w3.org/2000/svg">
<g id="#f7f7f7ff">
<path fill="#f7f7f7" opacity="1.00" d=" M 371.79 325.80 C 374.32 324.63 377.43 324.84 379.89 326.09 C 392.31 332.36 403.90 340.39 413.73 350.26 C 415.69 352.27 417.79 354.21 419.24 356.64 C 414.94 359.38 411.12 362.82 408.14 366.98 C 398.75 354.58 384.90 346.75 371.56 339.31 C 366.47 336.50 366.61 328.41 371.79 325.80 Z" />
</g>
<g id="#000000ff">
<path fill="#000000" opacity="1.00" d=" M 391.03 39.58 C 406.94 37.67 423.10 37.71 439.01 39.58 C 500.87 45.19 559.97 75.31 601.14 121.76 C 628.39 152.14 647.99 189.33 657.56 229.00 C 661.32 244.09 663.25 259.57 664.48 275.05 C 666.51 317.83 657.55 361.19 638.34 399.51 C 619.66 437.10 591.16 469.54 556.79 493.56 C 569.92 480.48 578.02 462.57 578.63 444.01 C 579.48 429.62 575.37 415.47 569.42 402.51 C 559.02 379.70 542.82 360.21 531.47 337.92 C 529.36 334.37 531.01 330.14 533.14 327.03 C 536.06 322.99 539.78 319.45 544.23 317.15 C 551.63 313.22 560.00 311.81 567.77 308.82 C 577.89 304.65 587.99 299.67 595.72 291.71 C 603.35 284.27 608.58 273.79 607.80 262.94 C 606.26 231.10 599.74 198.28 581.54 171.50 C 578.68 166.96 574.78 162.04 568.97 161.69 C 565.36 161.51 562.82 164.44 560.87 167.06 C 553.10 177.27 549.75 189.86 545.46 201.74 C 522.40 194.40 496.92 195.08 474.01 202.69 C 472.69 189.72 464.83 178.23 455.58 169.45 C 452.76 166.32 447.63 165.60 444.20 168.14 C 439.87 171.55 437.84 176.88 435.81 181.82 C 429.65 196.96 427.00 213.17 423.63 229.07 C 420.91 238.39 420.39 248.41 422.32 257.92 C 421.86 280.35 437.51 300.59 457.19 310.01 C 468.24 315.75 481.29 315.72 492.25 321.66 C 497.46 324.39 501.52 329.52 502.21 335.45 C 504.08 390.84 503.75 446.30 505.13 501.71 C 483.64 499.01 462.27 492.86 443.81 481.29 C 436.06 476.37 428.39 470.97 422.67 463.69 C 434.02 449.01 441.32 430.68 440.85 411.96 C 441.18 398.17 437.28 384.35 430.41 372.43 C 438.47 365.92 447.19 360.20 456.51 355.64 C 459.84 354.24 462.18 350.47 460.93 346.87 C 460.18 343.75 457.06 342.14 454.10 341.76 C 452.43 342.16 450.72 342.50 449.19 343.33 C 433.58 351.03 419.25 361.79 408.70 375.73 C 398.39 389.18 391.91 405.95 392.27 423.03 C 392.20 434.76 395.50 446.37 400.99 456.69 C 404.93 452.78 408.26 448.26 410.45 443.13 C 407.96 436.68 405.97 429.94 405.58 423.01 C 406.12 409.22 411.88 396.24 419.25 384.78 C 423.11 393.35 426.07 402.56 426.41 412.02 C 425.47 425.63 420.55 438.81 413.21 450.25 C 408.99 456.78 404.22 463.10 398.06 467.93 C 377.82 485.03 352.58 495.15 326.81 500.38 C 326.73 472.26 326.16 444.14 325.67 416.02 C 325.42 383.00 324.43 350.01 324.88 316.99 C 325.21 310.88 328.83 305.25 333.92 301.96 C 343.56 295.48 355.43 294.29 366.13 290.37 C 388.13 282.40 405.99 262.96 410.75 239.87 C 410.64 235.88 411.63 231.89 411.33 227.85 C 412.94 219.65 412.36 211.20 410.94 203.01 C 404.64 180.20 401.31 156.15 389.81 135.12 C 387.42 131.32 383.97 126.98 378.98 127.22 C 374.22 126.90 371.09 131.00 368.21 134.13 C 359.92 143.68 353.05 155.39 352.12 168.25 C 326.41 159.86 298.08 160.90 272.43 168.98 C 267.62 155.77 263.20 141.96 254.21 130.88 C 252.17 128.29 249.59 125.43 246.02 125.47 C 240.73 125.45 236.37 129.33 233.70 133.59 C 216.20 159.32 208.57 190.46 206.22 221.15 C 205.64 232.82 203.34 245.32 208.80 256.24 C 215.96 271.06 230.52 280.72 245.43 286.59 C 255.20 291.25 266.21 292.28 276.07 296.72 C 282.20 299.44 287.59 303.89 291.24 309.54 C 293.20 312.63 294.24 316.74 292.51 320.17 C 278.82 348.71 258.23 373.78 248.16 404.06 C 238.78 430.27 242.44 461.36 259.76 483.49 C 218.54 450.74 187.96 404.75 174.22 353.90 C 169.39 336.62 166.89 318.78 165.52 300.92 C 164.18 276.05 167.04 251.04 172.96 226.88 C 182.76 187.80 202.30 151.22 229.27 121.30 C 270.43 75.10 329.37 45.15 391.03 39.58 M 371.79 325.80 C 366.61 328.41 366.47 336.50 371.56 339.31 C 384.90 346.75 398.75 354.58 408.14 366.98 C 411.12 362.82 414.94 359.38 419.24 356.64 C 417.79 354.21 415.69 352.27 413.73 350.26 C 403.90 340.39 392.31 332.36 379.89 326.09 C 377.43 324.84 374.32 324.63 371.79 325.80 Z" />
<path fill="#000000" opacity="1.00" d=" M 333.50 514.35 C 363.04 508.70 392.08 496.00 413.41 474.36 C 435.53 498.59 467.93 511.29 500.07 514.72 C 508.52 516.06 516.90 513.80 525.19 512.52 C 523.06 513.13 520.99 513.90 519.03 514.93 C 486.54 529.92 450.77 537.51 415.04 537.81 C 394.83 537.71 374.64 535.08 355.01 530.32 C 339.98 526.78 325.53 521.24 311.29 515.34 C 316.51 515.62 321.62 516.92 326.90 516.39 C 328.58 514.60 331.30 514.94 333.50 514.35 Z" />
<path fill="#000000" opacity="1.00" d=" M 233.00 568.00 C 240.08 568.00 247.17 568.00 254.25 568.00 C 254.25 575.00 254.25 582.00 254.25 589.00 C 247.17 589.00 240.08 589.00 233.00 589.00 C 233.00 582.00 233.00 575.00 233.00 568.00 Z" />
<path fill="#000000" opacity="1.00" d=" M 272.00 568.00 C 279.27 568.00 286.54 567.99 293.82 568.00 C 293.81 581.31 293.81 594.63 293.82 607.94 C 306.15 607.94 318.48 607.94 330.81 607.94 C 330.82 614.62 330.81 621.31 330.82 628.00 C 318.48 628.01 306.15 627.99 293.81 628.00 C 293.81 657.33 293.81 686.66 293.82 715.98 C 293.83 725.02 296.04 734.81 302.90 741.19 C 310.29 748.21 321.00 749.87 330.81 749.98 C 330.81 755.66 330.81 761.34 330.81 767.02 C 315.37 766.95 298.68 764.81 286.37 754.66 C 276.17 746.33 272.00 732.75 272.00 719.97 C 272.00 669.31 272.00 618.66 272.00 568.00 Z" />
<path fill="#000000" opacity="1.00" d=" M 702.00 568.00 C 709.08 568.00 716.16 568.00 723.25 568.00 C 723.25 575.00 723.25 582.00 723.25 589.00 C 716.16 589.00 709.08 589.00 702.00 589.00 C 702.00 582.00 702.00 575.00 702.00 568.00 Z" />
<path fill="#000000" opacity="1.00" d=" M 118.97 604.02 C 138.44 600.88 159.15 604.53 175.85 615.21 C 188.67 623.41 199.69 634.68 206.90 648.14 C 212.78 659.12 215.59 671.62 215.51 684.05 C 215.47 709.02 215.55 734.00 215.47 758.98 C 215.35 773.33 209.69 787.49 199.89 797.98 C 186.39 812.43 167.74 822.06 148.08 824.39 C 129.99 826.48 111.09 823.78 94.87 815.27 C 76.60 805.88 62.40 788.83 56.98 768.96 C 63.96 768.87 70.94 768.69 77.93 768.61 C 82.13 782.57 93.22 793.33 105.71 800.23 C 118.45 807.36 133.76 809.62 148.05 806.70 C 162.32 803.92 175.23 795.53 184.15 784.13 C 190.21 776.39 193.81 766.74 194.18 756.91 C 194.34 751.17 194.19 745.43 194.25 739.70 C 184.26 750.68 171.48 759.25 157.17 763.44 C 136.54 769.50 113.34 768.22 94.28 757.85 C 80.40 750.25 68.67 738.77 60.59 725.19 C 51.51 709.89 48.48 691.48 50.63 673.93 C 54.70 639.04 84.30 609.09 118.97 604.02 M 123.54 623.76 C 95.86 627.87 73.24 653.26 71.66 681.08 C 70.76 694.18 73.98 707.65 81.34 718.58 C 89.89 731.31 102.89 741.33 117.88 745.03 C 133.49 748.86 150.84 747.18 164.63 738.58 C 178.76 729.71 189.58 715.22 192.90 698.75 C 195.15 687.33 194.84 675.22 190.88 664.20 C 186.21 651.24 176.96 640.14 165.62 632.43 C 153.41 624.16 137.99 621.44 123.54 623.76 Z" />
<path fill="#000000" opacity="1.00" d=" M 392.46 612.42 C 407.76 605.07 425.37 603.47 442.01 606.11 C 476.68 611.40 505.89 641.86 509.47 676.79 C 511.51 694.83 507.97 713.70 498.18 729.12 C 489.46 742.82 477.08 754.36 462.43 761.47 C 444.02 770.34 422.29 771.19 402.85 765.39 C 388.34 761.07 375.44 752.23 365.37 741.03 C 365.38 767.35 365.37 793.67 365.38 820.00 C 358.39 819.99 351.41 820.01 344.43 819.99 C 344.44 775.33 344.45 730.68 344.43 686.02 C 344.46 671.20 348.68 656.37 356.84 643.98 C 365.67 630.61 377.97 619.36 392.46 612.42 M 415.55 625.79 C 400.07 628.24 386.59 638.00 377.43 650.44 C 362.15 670.39 361.37 699.93 375.15 720.86 C 383.44 733.40 396.03 743.48 410.77 747.11 C 427.33 751.16 445.72 748.65 459.99 739.10 C 471.59 731.33 481.03 719.94 485.40 706.58 C 490.04 692.31 489.43 676.30 483.38 662.53 C 478.20 650.98 469.59 640.98 459.00 634.07 C 446.29 625.79 430.36 623.48 415.55 625.79 Z" />
<path fill="#000000" opacity="1.00" d=" M 588.85 605.82 C 608.70 603.06 629.77 606.43 646.89 617.19 C 664.96 628.61 679.66 646.67 684.00 667.93 C 686.09 677.12 685.48 686.59 685.56 695.94 C 685.56 718.98 685.56 742.02 685.56 765.06 C 678.37 765.06 671.19 765.06 664.00 765.06 C 663.99 756.86 664.00 748.67 664.00 740.48 C 653.28 752.27 639.45 761.48 623.91 765.42 C 605.74 770.00 585.96 768.72 568.75 761.17 C 553.41 754.35 540.44 742.60 531.43 728.50 C 520.07 710.66 517.22 688.19 521.84 667.73 C 525.32 652.27 534.03 638.29 545.51 627.48 C 557.28 616.05 572.54 608.11 588.85 605.82 M 593.60 625.77 C 568.83 629.23 547.11 649.48 542.59 674.18 C 539.99 688.53 541.94 703.96 549.51 716.59 C 557.52 729.91 570.09 740.87 585.12 745.40 C 601.61 750.32 620.40 748.45 634.90 738.88 C 644.86 732.27 653.15 723.02 658.34 712.23 C 664.42 699.43 665.46 684.51 662.13 670.80 C 658.28 655.11 647.55 641.54 633.88 633.15 C 621.93 625.82 607.33 623.72 593.60 625.77 Z" />
<path fill="#000000" opacity="1.00" d=" M 759.36 630.55 C 768.16 614.72 786.48 605.37 804.37 605.91 C 804.37 612.87 804.38 619.84 804.37 626.80 C 799.29 627.10 794.18 627.79 789.39 629.60 C 782.10 632.20 776.26 637.57 770.93 643.01 C 763.80 650.38 762.10 661.15 761.96 671.00 C 761.91 702.35 761.96 733.71 761.94 765.06 C 754.39 765.06 746.85 765.06 739.31 765.06 C 739.31 712.69 739.31 660.31 739.31 607.94 C 746.00 607.94 752.68 607.94 759.37 607.94 C 759.37 615.47 759.40 623.01 759.36 630.55 Z" />
<path fill="#000000" opacity="1.00" d=" M 233.00 607.94 C 240.08 607.94 247.17 607.94 254.25 607.94 C 254.25 660.31 254.25 712.69 254.25 765.06 C 247.17 765.06 240.08 765.06 233.00 765.06 C 233.00 712.69 233.00 660.31 233.00 607.94 Z" />
<path fill="#000000" opacity="1.00" d=" M 702.00 607.94 C 709.08 607.94 716.16 607.93 723.25 607.94 C 723.25 660.31 723.25 712.69 723.25 765.06 C 716.16 765.06 709.08 765.06 702.00 765.06 C 702.00 712.69 702.00 660.31 702.00 607.94 Z" />
</g>
</svg>
